Coordinates
version=1
nRows=13
nColumns=40
inDegrees=yes

Units are S.I. units (second, meters, Newtons, ...)
Angles are in degrees.

endheader
time	pelvis_tilt	pelvis_list	pelvis_rotation	pelvis_tx	pelvis_ty	pelvis_tz	hip_flexion_r	hip_adduction_r	hip_rotation_r	knee_angle_r	knee_angle_r_beta	ankle_angle_r	subtalar_angle_r	mtp_angle_r	hip_flexion_l	hip_adduction_l	hip_rotation_l	knee_angle_l	knee_angle_l_beta	ankle_angle_l	subtalar_angle_l	mtp_angle_l	lumbar_extension	lumbar_bending	lumbar_rotation	arm_flex_r	arm_add_r	arm_rot_r	elbow_flex_r	pro_sup_r	wrist_flex_r	wrist_dev_r	arm_flex_l	arm_add_l	arm_rot_l	elbow_flex_l	pro_sup_l	wrist_flex_l	wrist_dev_l
      0.32000000	     -3.88892711	     -6.38147961	      4.01284065	     -0.51539186	      0.93944133	      1.48944450	     20.36945679	      2.65908831	    -14.19913294	    -24.08259078	     -0.42032050	      2.34623958	     -8.80502833	      3.47023785	      8.59881037	     14.14104922	      9.79985716	    -57.98718812	     -1.01206736	     -1.11945604	     17.81789391	      5.04071979	      0.28226333	      5.91694750	     -7.12785204	     -7.77684779	    -12.01888239	    -23.79282065	     12.88016237	     89.95437384	      0.00000000	      0.00000000	      6.93010029	     14.36786465	     10.09162121	     43.67648110	     89.95437384	      0.00000000	      0.00000000
      0.33000000	     -3.85647083	     -6.19221016	      4.38901927	     -0.50349372	      0.94207243	      1.49073701	     18.97792269	      2.69900948	    -14.12802289	    -23.12302572	     -0.40357293	      2.83539686	     -8.43331421	      3.30549836	     10.65137915	     13.45300747	      8.81447271	    -59.42251395	     -1.03711852	      0.94188800	     18.47375118	      4.99233937	      0.20238001	      5.63620528	     -6.91588179	     -7.06740970	    -11.99636702	    -23.52977746	     13.10383086	     89.95437384	      0.00000000	      0.00000000	      6.65685802	     14.01169496	     10.10295831	     42.13614635	     89.95437384	      0.00000000	      0.00000000
      0.34000000	     -3.84865479	     -5.88762420	      4.67855818	     -0.49159334	      0.94458448	      1.49212425	     17.64945099	      2.55842392	    -14.50792929	    -22.21960325	     -0.38780524	      3.14913646	     -8.15628694	      3.14668917	     12.62479620	     12.74771016	      8.23453905	    -60.49441393	     -1.05582670	      2.42085974	     18.56256272	      5.23699395	      0.10560379	      5.21077414	     -6.64465542	     -6.36381367	    -11.98171647	    -23.14243674	     13.42791289	     89.95437384	      0.00000000	      0.00000000	      6.17827900	     13.70878755	     10.21302784	     40.86049326	     89.95437384	      0.00000000	      0.00000000
      0.35000000	     -3.81358378	     -5.53092146	      4.94650720	     -0.47978320	      0.94698036	      1.49350424	     16.28599327	      2.37259356	    -14.86712066	    -21.32511519	     -0.37219347	      3.53391071	     -7.84673538	      2.98829628	     14.47328461	     12.00212734	      7.85719570	    -61.16872071	     -1.06759558	      3.46161606	     18.60891639	      5.49456242	     -0.04436167	      4.71127290	     -6.34546683	     -5.60011661	    -11.96074788	    -22.74056536	     13.76089124	     89.95437384	      0.00000000	      0.00000000	      5.67976789	     13.43245427	     10.29045642	     39.62158949	     89.95437384	      0.00000000	      0.00000000
      0.36000000	     -3.59188777	     -4.96737252	      5.29724083	     -0.46775139	      0.94963777	      1.49427501	     14.62039764	      1.82574408	    -15.83151658	    -20.33927612	     -0.35498734	      3.49256161	     -6.70097487	     -0.27738964	     16.02239813	     10.83458884	      7.38826247	    -61.55706249	     -1.07437342	      6.63490637	     18.48282092	     17.35137834	     -0.39683363	      4.02369287	     -6.23075103	     -4.85841820	    -12.03721940	    -21.54325206	     14.28136737	     89.95437384	      0.00000000	      0.00000000	      5.08761304	     13.14790644	     10.68076328	     38.31379929	     89.95437384	      0.00000000	      0.00000000
      0.37000000	     -3.60828436	     -4.48993485	      5.39104965	     -0.45587104	      0.95164808	      1.49577485	     13.23216153	      1.59314865	    -15.98140572	    -19.31188255	     -0.33705594	      3.88491174	     -6.39119913	     -0.36099797	     17.67482104	      9.96262270	      7.37718652	    -61.44908796	     -1.07248891	      7.05130746	     18.43891888	     17.05877671	     -0.50620805	      3.37303982	     -5.80263577	     -4.04181274	    -12.02469739	    -21.22773022	     14.66099554	     89.95437384	      0.00000000	      0.00000000	      4.50027702	     12.99312905	     10.69635441	     36.95994946	     89.95437384	      0.00000000	      0.00000000
      0.38000000	     -3.13314334	     -3.91111880	      5.43384001	     -0.44337090	      0.95429954	      1.49710531	     11.15134302	      1.22411169	    -16.62634248	    -18.07325269	     -0.31543777	      4.20396672	     -5.24942213	     -0.77753332	     18.50276472	      9.07859480	      7.61121882	    -60.78355994	     -1.06087325	      7.29811107	     18.43391370	     16.92427845	     -1.15985547	      2.66547176	     -5.36940828	     -3.22908998	    -12.07537239	    -20.42548627	     15.21006676	     89.95437384	      0.00000000	      0.00000000	      3.90548713	     12.75283147	     11.07729219	     35.63464543	     89.95437384	      0.00000000	      0.00000000
      0.39000000	     -3.31307141	     -3.57798034	      5.25317156	     -0.43146632	      0.95537515	      1.49917502	     10.17925593	      1.10939328	    -17.07282649	    -17.44838740	     -0.30453181	      4.62158308	     -5.16210230	     -0.84590475	     20.20085501	      8.64115998	      8.20073692	    -60.18711547	     -1.05046333	      7.44126242	     18.38841701	     16.68109392	     -1.08563324	      2.13657117	     -4.75413623	     -2.39628583	    -12.09182379	    -20.21840673	     15.73826676	     89.95437384	      0.00000000	      0.00000000	      3.01305734	     12.70890063	     10.98517853	     34.66953643	     89.95437384	      0.00000000	      0.00000000
      0.40000000	     -3.29478980	     -2.90028628	      4.97401768	     -0.41912391	      0.95684548	      1.50076700	      8.63479222	      0.71197353	    -16.82579786	    -16.16774534	     -0.28218039	      4.93506185	     -4.15567520	     -1.03785754	     21.33380638	      7.65306370	      8.66373286	    -58.90476698	     -1.02808213	      7.47916130	     18.07731925	     16.46488371	     -1.19957883	      1.28221473	     -4.01107513	     -1.65631521	    -12.15297211	    -19.59888223	     16.32720576	     89.95437384	      0.00000000	      0.00000000	      2.50690946	     12.53078754	     11.13351650	     32.83750374	     89.95437384	      0.00000000	      0.00000000
      0.41000000	     -2.59027183	     -2.05889557	      4.42956225	     -0.40622015	      0.95904927	      1.50244864	      6.50689436	      0.01022262	    -17.32119053	    -15.31268866	     -0.26725683	      5.39979952	     -2.43190297	     -1.72071428	     21.36657152	      6.84681446	      9.94014516	    -57.11645890	     -0.99687026	      7.50397323	     17.90520268	     16.10358317	     -2.11189175	      0.31655280	     -3.11385270	     -0.89073100	    -12.29900775	    -18.55279854	     17.27018059	     89.95437384	      0.00000000	      0.00000000	      1.80726746	     12.35239964	     11.63077318	     31.53060868	     89.95437384	      0.00000000	      0.00000000
      0.42000000	     -2.90840060	     -1.87724615	      4.13539485	     -0.39413803	      0.95894549	      1.50443263	      5.75740670	      0.03129716	    -17.79265023	    -14.73723056	     -0.25721320	      5.84003747	     -2.32070576	     -1.83350359	     22.96853181	      6.61131416	     10.53724770	    -55.65879395	     -0.97142921	      7.64518632	     17.70399400	     15.89471796	     -1.82725520	     -0.05044258	     -2.48043958	     -0.06087483	    -12.39452594	    -18.33330249	     17.87437476	     89.95437384	      0.00000000	      0.00000000	      0.78003610	     12.33441157	     11.57591207	     30.51101926	     89.95437384	      0.00000000	      0.00000000
      0.43000000	     -3.22378547	     -1.57849754	      3.74185759	     -0.38203888	      0.95858428	      1.50624604	      4.95993990	     -0.07119358	    -17.93320840	    -14.06827045	     -0.24553764	      6.33374629	     -2.05651230	     -1.98166073	     24.40735223	      6.26476309	     11.27015881	    -53.83685712	     -0.93963042	      7.69611442	     17.38125659	     15.68864867	     -1.52105697	     -0.53459044	     -1.72794045	      0.71222475	    -12.52754138	    -17.92963228	     18.52751722	     89.95437384	      0.00000000	      0.00000000	     -0.18664750	     12.27372807	     11.52441162	     29.39097859	     89.95437384	      0.00000000	      0.00000000
      0.44000000	     -2.45730398	     -0.05382241	      2.91234857	     -0.36895088	      0.96012775	      1.50744895	      2.91592483	     -1.80388974	    -18.57016248	    -13.47042096	     -0.23510320	      5.74909398	      1.29531174	    -11.71592199	     23.78260878	      4.66138492	     12.73470330	    -50.73910169	     -0.88556438	      6.63567847	     16.98615983	     12.07277609	     -2.47861996	     -2.23172264	     -0.68943337	      1.42055059	    -12.77907602	    -16.24901107	     19.68731713	     89.95437384	      0.00000000	      0.00000000	     -0.84046807	     12.16952770	     12.20214289	     27.78503403	     89.95437384	      0.00000000	      0.00000000
